<svg width="21" height="20" viewBox="0 0 21 20" fill="none" xmlns="http://www.w3.org/2000/svg">
<path d="M14.668 15.3584H11.3346L7.62629 17.825C7.07629 18.1917 6.33464 17.8001 6.33464 17.1334V15.3584C3.83464 15.3584 2.16797 13.6917 2.16797 11.1917V6.19169C2.16797 3.69169 3.83464 2.02502 6.33464 2.02502H14.668C17.168 2.02502 18.8346 3.69169 18.8346 6.19169V11.1917C18.8346 13.6917 17.168 15.3584 14.668 15.3584Z" stroke="#F5F5F5" stroke-opacity="0.6" stroke-width="1.5" stroke-miterlimit="10" stroke-linecap="round" stroke-linejoin="round"/>
<path d="M10.5005 9.46668V9.29171C10.5005 8.72504 10.8505 8.42503 11.2005 8.18336C11.5422 7.95003 11.8838 7.65004 11.8838 7.10004C11.8838 6.33337 11.2672 5.71667 10.5005 5.71667C9.73383 5.71667 9.11719 6.33337 9.11719 7.10004" stroke="#F5F5F5" stroke-opacity="0.6" stroke-width="1.5" stroke-linecap="round" stroke-linejoin="round"/>
<path d="M10.4949 11.4583H10.5024" stroke="#F5F5F5" stroke-opacity="0.6" stroke-width="1.5" stroke-linecap="round" stroke-linejoin="round"/>
</svg>
