<svg width="45" height="41" viewBox="0 0 45 41" fill="none" xmlns="http://www.w3.org/2000/svg">
<mask id="path-1-inside-1_1897_25978" fill="white">
<path d="M33.2719 24.519C32.2875 28.2229 30.0493 31.4708 26.9387 33.7095C23.828 35.9481 20.0374 37.0389 16.2127 36.7961C12.388 36.5532 8.76576 34.9917 5.96327 32.3776C3.16078 29.7634 1.3514 26.2585 0.843434 22.4598C0.335463 18.6612 1.16033 14.804 3.17748 11.5453C5.19464 8.28671 8.27928 5.82831 11.9058 4.58903C15.5323 3.34974 19.4764 3.40625 23.0659 4.74892C26.6555 6.09159 29.6684 8.63734 31.5914 11.9524L22.5868 17.1757C21.8723 15.9439 20.7527 14.9979 19.4189 14.499C18.0851 14.0001 16.6196 13.9791 15.272 14.4396C13.9245 14.9001 12.7783 15.8136 12.0288 17.0244C11.2792 18.2353 10.9727 19.6686 11.1615 21.0801C11.3502 22.4915 12.0226 23.7939 13.0639 24.7653C14.1052 25.7366 15.4512 26.3169 16.8724 26.4071C18.2936 26.4974 19.7021 26.092 20.8579 25.2602C22.0138 24.4284 22.8454 23.2215 23.2112 21.8452L33.2719 24.519Z"/>
</mask>
<path d="M33.2719 24.519C32.2875 28.2229 30.0493 31.4708 26.9387 33.7095C23.828 35.9481 20.0374 37.0389 16.2127 36.7961C12.388 36.5532 8.76576 34.9917 5.96327 32.3776C3.16078 29.7634 1.3514 26.2585 0.843434 22.4598C0.335463 18.6612 1.16033 14.804 3.17748 11.5453C5.19464 8.28671 8.27928 5.82831 11.9058 4.58903C15.5323 3.34974 19.4764 3.40625 23.0659 4.74892C26.6555 6.09159 29.6684 8.63734 31.5914 11.9524L22.5868 17.1757C21.8723 15.9439 20.7527 14.9979 19.4189 14.499C18.0851 14.0001 16.6196 13.9791 15.272 14.4396C13.9245 14.9001 12.7783 15.8136 12.0288 17.0244C11.2792 18.2353 10.9727 19.6686 11.1615 21.0801C11.3502 22.4915 12.0226 23.7939 13.0639 24.7653C14.1052 25.7366 15.4512 26.3169 16.8724 26.4071C18.2936 26.4974 19.7021 26.092 20.8579 25.2602C22.0138 24.4284 22.8454 23.2215 23.2112 21.8452L33.2719 24.519Z" fill="#0794E2" stroke="#484242" stroke-width="1.39496" mask="url(#path-1-inside-1_1897_25978)"/>
</svg>
