<svg width="21" height="20" viewBox="0 0 21 20" fill="none" xmlns="http://www.w3.org/2000/svg">
<path d="M7.63214 11.25H4.40297C3.97513 11.2524 3.56564 11.424 3.26397 11.7274C2.96229 12.0308 2.79296 12.4413 2.79297 12.8691V16.0983C2.79275 16.3098 2.83424 16.5192 2.91508 16.7147C2.99591 16.9101 3.11449 17.0877 3.26404 17.2372C3.41358 17.3868 3.59116 17.5054 3.78659 17.5862C3.98202 17.667 4.19148 17.7085 4.40297 17.7083H7.63214C8.06004 17.7087 8.47067 17.5395 8.77402 17.2377C9.07737 16.9359 9.2487 16.5262 9.25047 16.0983V12.8691C9.25069 12.6565 9.20898 12.446 9.12773 12.2496C9.04648 12.0531 8.92728 11.8746 8.77696 11.7243C8.62664 11.574 8.44815 11.4548 8.25171 11.3735C8.05526 11.2923 7.84472 11.2506 7.63214 11.2508M7.63214 2.29163H4.40297C4.19148 2.29141 3.98202 2.3329 3.78659 2.41373C3.59116 2.49457 3.41358 2.61315 3.26404 2.7627C3.11449 2.91224 2.99591 3.08981 2.91508 3.28525C2.83424 3.48068 2.79275 3.69014 2.79297 3.90163V7.13079C2.79252 7.5587 2.96174 7.96932 3.26353 8.27268C3.56532 8.57603 3.97507 8.74736 4.40297 8.74913H7.63214C7.84472 8.74935 8.05526 8.70764 8.25171 8.62639C8.44815 8.54513 8.62664 8.42594 8.77696 8.27562C8.92728 8.1253 9.04648 7.94681 9.12773 7.75036C9.20898 7.55392 9.25069 7.34338 9.25047 7.13079V3.90163C9.2487 3.47373 9.07737 3.06398 8.77402 2.76219C8.47067 2.4604 8.06004 2.29118 7.63214 2.29163ZM16.5996 2.29163H13.3705C12.9426 2.29118 12.5319 2.4604 12.2286 2.76219C11.9252 3.06398 11.7539 3.47373 11.7521 3.90163V7.13079C11.7524 7.55993 11.9229 7.97144 12.2264 8.27488C12.5298 8.57833 12.9413 8.74891 13.3705 8.74913H16.5996C17.0275 8.74736 17.4373 8.57603 17.7391 8.27268C18.0409 7.96932 18.2101 7.5587 18.2096 7.13079V3.90163C18.2099 3.69014 18.1684 3.48068 18.0875 3.28525C18.0067 3.08981 17.8881 2.91224 17.7386 2.7627C17.589 2.61315 17.4114 2.49457 17.216 2.41373C17.0206 2.3329 16.8111 2.29141 16.5996 2.29163Z" stroke="#F5F5F5" stroke-opacity="0.6" stroke-width="1.5" stroke-linecap="round" stroke-linejoin="round"/>
<path d="M14.9748 11.5142V17.4442M12.0156 14.4858H17.9456" stroke="#F5F5F5" stroke-opacity="0.6" stroke-width="1.5" stroke-miterlimit="10" stroke-linecap="round"/>
</svg>
