<svg width="38" height="38" viewBox="0 0 38 38" fill="none" xmlns="http://www.w3.org/2000/svg">
<rect width="38" height="38" rx="19" fill="#FEE7E6" fill-opacity="0.41"/>
<path d="M27.3188 21.0994C26.925 21.0994 26.6063 20.7844 26.6063 20.3956C26.6063 20.0063 26.925 19.6919 27.3188 19.6919H27.4563C27.6187 19.6919 27.7563 19.5619 27.7563 19.395V18.6113C27.7561 18.5721 27.7482 18.5333 27.733 18.4971C27.7178 18.461 27.6957 18.4282 27.6678 18.4006C27.64 18.373 27.6069 18.3512 27.5706 18.3364C27.5343 18.3216 27.4955 18.3142 27.4563 18.3144H27.3438C26.95 18.3144 26.6125 18.0119 26.6063 17.6231C26.6049 17.529 26.6224 17.4356 26.6577 17.3483C26.693 17.2611 26.7453 17.1818 26.8117 17.115C26.8781 17.0483 26.9572 16.9955 27.0442 16.9598C27.1313 16.924 27.2246 16.9061 27.3188 16.9069H27.4563C27.6187 16.9069 27.7563 16.7775 27.7563 16.6106V15.6475C27.7559 15.5753 27.7289 15.5057 27.6805 15.4521C27.6321 15.3985 27.5656 15.3646 27.4937 15.3569C27.0605 15.3008 26.6568 15.1065 26.3427 14.8029C26.0286 14.4992 25.8207 14.1024 25.75 13.6713C25.7359 13.5886 25.693 13.5135 25.629 13.4594C25.565 13.4052 25.4839 13.3753 25.4 13.375H12.5938C12.5095 13.374 12.4278 13.4034 12.3635 13.4579C12.2992 13.5123 12.2567 13.588 12.2438 13.6713C12.1063 14.5419 11.4 15.2275 10.5125 15.3506C10.4407 15.3583 10.3742 15.3922 10.3258 15.4458C10.2773 15.4995 10.2504 15.569 10.25 15.6413V16.61C10.25 16.7713 10.3813 16.9069 10.55 16.9069H10.6625C11.0563 16.9069 11.3937 17.2094 11.4 17.5981C11.4013 17.6923 11.3838 17.7857 11.3486 17.8729C11.3133 17.9602 11.2609 18.0395 11.1945 18.1063C11.1281 18.173 11.0491 18.2258 10.962 18.2615C10.875 18.2973 10.7816 18.3152 10.6875 18.3144H10.55C10.3875 18.3144 10.25 18.4444 10.25 18.6113V19.395C10.25 19.5556 10.3813 19.6913 10.55 19.6913H10.6875C11.0813 19.6913 11.4 20.0063 11.4 20.3956C11.4 20.7844 11.0813 21.0994 10.6875 21.0994H10.55C10.3875 21.0994 10.25 21.2288 10.25 21.3956V22.3713C10.25 22.5194 10.3625 22.6431 10.5125 22.6613C10.9426 22.7173 11.3432 22.9103 11.655 23.2118C11.9668 23.5132 12.1733 23.9071 12.2438 24.335C12.258 24.4171 12.3011 24.4914 12.3653 24.5446C12.4294 24.5977 12.5104 24.6263 12.5938 24.625H25.4125C25.4958 24.6263 25.5768 24.5977 25.641 24.5446C25.7051 24.4914 25.7482 24.4171 25.7625 24.335C25.8327 23.908 26.0382 23.5148 26.3488 23.2135C26.6593 22.9121 27.0585 22.7185 27.4875 22.6613C27.6375 22.6425 27.75 22.5194 27.75 22.3713V21.3963C27.7498 21.3571 27.7419 21.3183 27.7268 21.2821C27.7116 21.246 27.6894 21.2132 27.6616 21.1856C27.6337 21.158 27.6007 21.1362 27.5644 21.1214C27.5281 21.1066 27.4892 21.0992 27.45 21.0994H27.3188Z" fill="#F8312F"/>
<path d="M23.375 16.5C23.0325 16.5 22.75 16.78 22.75 17.12V20.88C22.7572 21.041 22.8262 21.1929 22.9426 21.3042C23.059 21.4156 23.2139 21.4777 23.375 21.4777C23.5361 21.4777 23.691 21.4156 23.8074 21.3042C23.9238 21.1929 23.9928 21.041 24 20.88V17.12C23.9998 17.0382 23.9835 16.9573 23.952 16.8818C23.9205 16.8063 23.8743 16.7378 23.8163 16.6802C23.7582 16.6226 23.6893 16.577 23.6136 16.5461C23.5379 16.5152 23.4568 16.4995 23.375 16.5ZM20.2531 19C20.2531 19.3316 20.1214 19.6495 19.887 19.8839C19.6526 20.1183 19.3346 20.25 19.0031 20.25C18.6716 20.25 18.3537 20.1183 18.1192 19.8839C17.8848 19.6495 17.7531 19.3316 17.7531 19C17.7531 18.6685 17.8848 18.3506 18.1192 18.1161C18.3537 17.8817 18.6716 17.75 19.0031 17.75C19.3346 17.75 19.6526 17.8817 19.887 18.1161C20.1214 18.3506 20.2531 18.6685 20.2531 19ZM14 17.12C14 16.78 14.285 16.5 14.6313 16.5C14.7134 16.4992 14.795 16.5146 14.8712 16.5453C14.9474 16.5761 15.0168 16.6215 15.0755 16.6791C15.1341 16.7367 15.1808 16.8053 15.2129 16.8809C15.245 16.9566 15.2618 17.0378 15.2625 17.12V20.88C15.2625 21.22 14.9775 21.5 14.6313 21.5C14.285 21.5 14 21.22 14 20.88V17.12Z" fill="#CA0B4A"/>
<path d="M14.3422 15.2573C13.5578 15.2573 12.9141 15.8648 12.9141 16.6248V21.3942C12.9141 22.1617 13.5653 22.7617 14.3422 22.7617H23.6609C24.4453 22.7617 25.0891 22.1548 25.0891 21.3942V16.6248C25.0891 15.8648 24.4453 15.2573 23.6609 15.2573H14.3422ZM23.6609 22.4054H21.8953V15.6136H23.6609C24.2641 15.6136 24.7328 16.0767 24.7328 16.6248V21.3942C24.7328 21.9423 24.2641 22.4054 23.6609 22.4054ZM21.5391 22.4054H16.4641V15.6136H21.5391V22.4054ZM16.1078 15.6136V22.4054H14.3422C13.7441 22.4054 13.2703 21.9473 13.2703 21.3942V16.6248C13.2703 16.0767 13.7391 15.6136 14.3422 15.6136H16.1078Z" fill="#CA0B4A"/>
</svg>
