<svg width="29" height="31" viewBox="0 0 29 31" fill="none" xmlns="http://www.w3.org/2000/svg">
<path d="M7.08952 4.38007L2.70173 2.18553C2.51331 2.09159 2.30403 2.04734 2.09371 2.05696C1.88339 2.06657 1.67902 2.12975 1.49997 2.2405C1.32091 2.35124 1.17311 2.50588 1.07057 2.68976C0.968036 2.87364 0.914163 3.08066 0.914062 3.2912V4.16178C0.91477 4.40865 0.989151 4.64969 1.12768 4.85404C1.26621 5.05838 1.46258 5.21672 1.69165 5.30878L4.00373 6.23361L3.23648 6.74511C3.09667 6.83834 2.97734 6.95909 2.88577 7.09998C2.79421 7.24088 2.73233 7.39897 2.70392 7.56459C2.67551 7.73021 2.68117 7.89988 2.72054 8.06324C2.75992 8.2266 2.83219 8.38021 2.93294 8.5147L3.63173 9.44599C3.7471 9.59941 3.89652 9.72394 4.06821 9.80979C4.23991 9.89563 4.42919 9.94045 4.62115 9.9407L7.08952 9.26128V4.38007ZM21.9179 4.38007L26.3069 2.18553C26.4954 2.09159 26.7046 2.04734 26.915 2.05696C27.1253 2.06657 27.3296 2.12975 27.5087 2.2405C27.6878 2.35124 27.8356 2.50588 27.9381 2.68976C28.0406 2.87364 28.0945 3.08066 28.0946 3.2912V4.16178C28.0939 4.40865 28.0195 4.64969 27.881 4.85404C27.7425 5.05838 27.5461 5.21672 27.317 5.30878L25.0049 6.23361L25.7722 6.74511C25.912 6.83834 26.0313 6.95909 26.1229 7.09998C26.2145 7.24088 26.2763 7.39897 26.3047 7.56459C26.3332 7.73021 26.3275 7.89988 26.2881 8.06324C26.2487 8.2266 26.1765 8.38021 26.0757 8.5147L25.3769 9.44599C25.2616 9.59941 25.1121 9.72394 24.9405 9.80979C24.7688 9.89563 24.5795 9.94045 24.3875 9.9407L21.9179 9.26128V4.38007Z" fill="#C2F3FF"/>
<path d="M20.6781 1.2915H8.32077C7.99315 1.29185 7.67907 1.42223 7.44753 1.65401C7.21599 1.88579 7.08594 2.20001 7.08594 2.52763V11.1753C7.08577 11.3376 7.11758 11.4983 7.17956 11.6483C7.24154 11.7982 7.33247 11.9345 7.44716 12.0493C7.56184 12.1641 7.69802 12.2552 7.84792 12.3173C7.99782 12.3795 8.1585 12.4115 8.32077 12.4115H20.6756C20.8379 12.4116 20.9988 12.3798 21.1488 12.3177C21.2989 12.2557 21.4352 12.1646 21.55 12.0498C21.6648 11.935 21.7559 11.7986 21.8179 11.6486C21.88 11.4985 21.9119 11.3377 21.9117 11.1753V2.52763C21.9117 2.20001 21.7816 1.88579 21.5501 1.65401C21.3186 1.42223 21.0045 1.29185 20.6769 1.2915" fill="#E3E3E3"/>
<path d="M8.32858 1.2915C8.00097 1.29185 7.68689 1.42223 7.45535 1.65401C7.22381 1.88579 7.09375 2.20001 7.09375 2.52763V11.1753C7.09358 11.3376 7.1254 11.4983 7.18738 11.6483C7.24936 11.7983 7.34029 11.9345 7.45497 12.0493C7.56965 12.1641 7.70583 12.2552 7.85574 12.3173C8.00564 12.3795 8.16631 12.4115 8.32858 12.4115H9.349L20.4703 1.2915H8.32858Z" fill="white"/>
<path d="M20.6781 1.2915H8.32077C7.99315 1.29185 7.67907 1.42223 7.44753 1.65401C7.21599 1.88579 7.08594 2.20001 7.08594 2.52763V11.1753C7.08577 11.3376 7.11758 11.4983 7.17956 11.6483C7.24154 11.7982 7.33247 11.9345 7.44716 12.0493C7.56184 12.1641 7.69802 12.2552 7.84792 12.3173C7.99782 12.3795 8.1585 12.4115 8.32077 12.4115H20.6756C20.8379 12.4116 20.9988 12.3798 21.1488 12.3177C21.2989 12.2557 21.4352 12.1646 21.55 12.0498C21.6648 11.935 21.7559 11.7986 21.8179 11.6486C21.88 11.4985 21.9119 11.3377 21.9117 11.1753V2.52763C21.9117 2.20001 21.7816 1.88579 21.5501 1.65401C21.3186 1.42223 21.0045 1.29185 20.6769 1.2915" stroke="#191919" stroke-linecap="round" stroke-linejoin="round"/>
<path d="M7.50673 1.60268L13.7623 6.29531C13.9764 6.45507 14.2365 6.54137 14.5037 6.54137C14.7709 6.54137 15.0309 6.45507 15.2451 6.29531L21.5019 1.6001M14.5037 18.5881V29.7081M10.7966 16.1171V24.7661M18.2108 16.1171V24.7661M21.9179 4.37976L26.3069 2.18522C26.4954 2.09128 26.7046 2.04703 26.915 2.05665C27.1253 2.06627 27.3296 2.12944 27.5087 2.24019C27.6878 2.35093 27.8356 2.50558 27.9381 2.68945C28.0406 2.87333 28.0945 3.08035 28.0946 3.29089V4.16147C28.0939 4.40834 28.0195 4.64939 27.881 4.85373C27.7425 5.05807 27.5461 5.21641 27.317 5.30847L25.0049 6.23331L25.7722 6.74481C25.912 6.83803 26.0313 6.95878 26.1229 7.09968C26.2145 7.24057 26.2763 7.39866 26.3047 7.56428C26.3332 7.7299 26.3275 7.89957 26.2881 8.06293C26.2487 8.22629 26.1765 8.3799 26.0757 8.51439L25.3769 9.44568C25.2616 9.5991 25.1121 9.72363 24.9405 9.80948C24.7688 9.89533 24.5795 9.94014 24.3875 9.94039M7.08952 4.37976L2.70173 2.18522C2.51331 2.09128 2.30403 2.04703 2.09371 2.05665C1.88339 2.06627 1.67902 2.12944 1.49997 2.24019C1.32091 2.35093 1.17311 2.50558 1.07057 2.68945C0.968036 2.87333 0.914163 3.08035 0.914062 3.29089V4.16147C0.91477 4.40834 0.989151 4.64939 1.12768 4.85373C1.26621 5.05807 1.46258 5.21641 1.69165 5.30847L4.00373 6.23331L3.23648 6.74481C3.09667 6.83803 2.97734 6.95878 2.88577 7.09968C2.79421 7.24057 2.73233 7.39866 2.70392 7.56428C2.67551 7.7299 2.68117 7.89957 2.72054 8.06293C2.75992 8.22629 2.83219 8.3799 2.93294 8.51439L3.63173 9.44568C3.7471 9.5991 3.89652 9.72363 4.06821 9.80948C4.23991 9.89533 4.42919 9.94014 4.62115 9.94039" stroke="#191919" stroke-linecap="round" stroke-linejoin="round"/>
</svg>
