<svg width="21" height="20" viewBox="0 0 21 20" fill="none" xmlns="http://www.w3.org/2000/svg">
<path d="M8.13411 9.05829C8.05078 9.04996 7.95078 9.04996 7.85911 9.05829C5.87578 8.99163 4.30078 7.36663 4.30078 5.36663C4.30078 3.32496 5.95078 1.66663 8.00078 1.66663C10.0424 1.66663 11.7008 3.32496 11.7008 5.36663C11.6924 7.36663 10.1174 8.99163 8.13411 9.05829Z" stroke="white" stroke-width="1.5" stroke-linecap="round" stroke-linejoin="round"/>
<path d="M14.1747 3.33337C15.7914 3.33337 17.0914 4.64171 17.0914 6.25004C17.0914 7.82504 15.8414 9.10837 14.2831 9.16671C14.2164 9.15837 14.1414 9.15837 14.0664 9.16671" stroke="white" stroke-width="1.5" stroke-linecap="round" stroke-linejoin="round"/>
<path d="M3.96563 12.1334C1.94896 13.4834 1.94896 15.6834 3.96563 17.025C6.25729 18.5584 10.0156 18.5584 12.3073 17.025C14.324 15.675 14.324 13.475 12.3073 12.1334C10.024 10.6084 6.26562 10.6084 3.96563 12.1334Z" stroke="white" stroke-width="1.5" stroke-linecap="round" stroke-linejoin="round"/>
<path d="M15.7852 16.6666C16.3852 16.5416 16.9518 16.3 17.4185 15.9416C18.7185 14.9666 18.7185 13.3583 17.4185 12.3833C16.9602 12.0333 16.4018 11.8 15.8102 11.6666" stroke="white" stroke-width="1.5" stroke-linecap="round" stroke-linejoin="round"/>
</svg>
